<?xml version="1.0" encoding="UTF-8" standalone="no"?>
<svg
   height="16"
   viewBox="0 0 16 16"
   width="16"
   version="1.1"
   id="svg4"
   sodipodi:docname="audio_node_wrangler_icon.svg"
   inkscape:version="1.3 (0e150ed, 2023-07-21)"
   xmlns:inkscape="http://www.inkscape.org/namespaces/inkscape"
   xmlns:sodipodi="http://sodipodi.sourceforge.net/DTD/sodipodi-0.dtd"
   xmlns="http://www.w3.org/2000/svg"
   xmlns:svg="http://www.w3.org/2000/svg">
  <defs
     id="defs4" />
  <sodipodi:namedview
     id="namedview4"
     pagecolor="#ffffff"
     bordercolor="#666666"
     borderopacity="1.0"
     inkscape:showpageshadow="2"
     inkscape:pageopacity="0.0"
     inkscape:pagecheckerboard="0"
     inkscape:deskcolor="#d1d1d1"
     showgrid="false"
     inkscape:zoom="25.058097"
     inkscape:cx="12.989813"
     inkscape:cy="13.927634"
     inkscape:window-width="2498"
     inkscape:window-height="1376"
     inkscape:window-x="2622"
     inkscape:window-y="27"
     inkscape:window-maximized="1"
     inkscape:current-layer="svg4" />
  <path
     d="M9 14a1 1 0 0 0 1.5.85l4-2.511a1 1 0 0 0 0-1.724l-4-2.511a1 1 0 0 0-1.5.85z"
     fill="#e0e0e0"
     id="path3" />
  <path
     d="M13 2a1 1 0 0 0-1-1L4.754 3A1 1 0 0 0 4 4v5.55A2.5 2.5 0 1 0 6 12V4.756l5-1.428V6.5l2-1z"
     fill="#e0e0e0"
     id="path4"
     style="fill:#e0e0e0;fill-opacity:1" />
</svg>
